<svg width="1000" height="1000" viewBox="0 0 100 100" xmlns="http://www.w3.org/2000/svg" fill="#fff">

<style>
rect {
stroke: #ccc;
        stroke-width: 0.1;
}
</style>

<!-- Generated 2021-10-14 -->
<rect x="0" y="0" width="4" height="4" />
<rect x="96" y="0" width="4" height="4" />
<rect x="10" y="10" width="9" height="9" />
<rect x="19" y="10" width="8" height="2" />
<rect x="44" y="12" width="7" height="4" />
<rect x="29" y="12" width="8" height="4" />
<rect x="18" y="90" width="8" height="4" />
<rect x="20" y="89" width="4" height="1" />
<rect x="18" y="88" width="2" height="2" />
<rect x="24" y="87" width="2" height="3" />
<rect x="17" y="90" width="1" height="1" />
<rect x="26" y="90" width="1" height="1" />
<rect x="0" y="96" width="4" height="4" />
<rect x="4" y="96" width="4" height="4" />
<rect x="8" y="96" width="4" height="4" />
<rect x="0" y="63" width="2" height="2" />
<rect x="12" y="96" width="4" height="4" />
<rect x="44" y="39" width="10" height="2" />
<rect x="70" y="46" width="7" height="8" />
<rect x="66" y="71" width="4" height="4" />
<rect x="41" y="26" width="8" height="4" />
<rect x="16" y="96" width="4" height="4" />
<rect x="9" y="36" width="10" height="7" />
<rect x="56" y="14" width="8" height="8" />
<rect x="97" y="51" width="2" height="2" />
<rect x="40" y="1" width="17" height="10" />
<rect x="42" y="34" width="14" height="2" />
<rect x="4" y="0" width="8" height="3" />
<rect x="34" y="66" width="10" height="10" />
<rect x="41" y="44" width="13" height="14" />
<rect x="54" y="44" width="13" height="14" />
<rect x="22" y="22" width="14" height="13" />
<rect x="41" y="58" width="26" height="7" />
<rect x="99" y="99" width="1" height="1" />
<rect x="62" y="27" width="13" height="6" />
<rect x="19" y="43" width="16" height="17" />
<rect x="10" y="51" width="1" height="1" />
<rect x="66" y="75" width="4" height="4" />
<rect x="62" y="75" width="4" height="4" />
<rect x="19" y="12" width="7" height="7" />
<rect x="1" y="5" width="2" height="2" />
<rect x="70" y="4" width="3" height="3" />
<rect x="75" y="9" width="5" height="5" />
<rect x="0" y="65" width="12" height="8" />
<rect x="1" y="10" width="8" height="4" />
<rect x="13" y="2" width="8" height="4" />
<rect x="2" y="92" width="8" height="4" />
<rect x="64" y="4" width="4" height="6" />
<rect x="41" y="84" width="7" height="4" />
<rect x="38" y="82" width="3" height="3" />
<rect x="62" y="71" width="4" height="4" />
<rect x="39" y="17" width="5" height="4" />
<rect x="45" y="17" width="5" height="4" />
<rect x="19" y="60" width="15" height="26" />
<rect x="12" y="0" width="1" height="1" />
<rect x="25" y="0" width="1" height="1" />
<rect x="67" y="17" width="9" height="9" />
<rect x="78" y="17" width="9" height="9" />
<rect x="77" y="1" width="7" height="4" />
<rect x="69" y="7" width="5" height="5" />
<rect x="74" y="36" width="4" height="3" />
<rect x="77" y="5" width="2" height="2" />
<rect x="73" y="56" width="23" height="21" />
<rect x="79" y="32" width="6" height="3" />
<rect x="24" y="2" width="3" height="2" />
<rect x="30" y="1" width="4" height="2" />
<rect x="12" y="21" width="1" height="1" />
<rect x="91" y="12" width="1" height="1" />
<rect x="62" y="37" width="8" height="4" />
<rect x="95" y="95" width="5" height="1" />
<rect x="95" y="15" width="5" height="2" />
<rect x="1" y="24" width="18" height="10" />
<rect x="51" y="29" width="8" height="4" />
<rect x="79" y="36" width="16" height="12" />
<rect x="30" y="5" width="9" height="4" />
<rect x="3" y="87" width="8" height="4" />
<rect x="81" y="6" width="9" height="9" />
<rect x="81" y="15" width="1" height="1" />
<rect x="82" y="15" width="1" height="1" />
<rect x="83" y="15" width="1" height="1" />
<rect x="84" y="15" width="1" height="1" />
<rect x="85" y="15" width="1" height="1" />
<rect x="89" y="23" width="1" height="1" />
<rect x="3" y="44" width="3" height="3" />
<rect x="56" y="87" width="4" height="3" />
<rect x="4" y="3" width="8" height="1" />
<rect x="45" y="67" width="11" height="2" />
<rect x="3" y="17" width="2" height="2" />
<rect x="4" y="55" width="1" height="1" />
<rect x="31" y="96" width="1" height="1" />
<rect x="71" y="88" width="2" height="2" />
<rect x="73" y="77" width="27" height="18" />
<rect x="51" y="70" width="10" height="10" />
<rect x="88" y="24" width="12" height="12" />
<rect x="34" y="35" width="8" height="8" />
<rect x="1" y="38" width="8" height="4" />
<rect x="4" y="5" width="2" height="2" />
<rect x="8" y="5" width="2" height="2" />
<rect x="39" y="93" width="8" height="4" />
<rect x="10" y="45" width="2" height="4" />
<rect x="50" y="91" width="5" height="3" />
<rect x="2" y="74" width="10" height="10" />
<rect x="62" y="82" width="6" height="6" />
<rect x="57" y="1" width="7" height="7" />
<rect x="28" y="89" width="1" height="1" />
<rect x="21" y="4" width="8" height="6" />
<rect x="5" y="52" width="8" height="3" />
<rect x="52" y="23" width="7" height="4" />
<rect x="60" y="96" width="1" height="1" />
<rect x="40" y="89" width="6" height="4" />
<rect x="21" y="37" width="10" height="3" />
<rect x="72" y="40" width="5" height="3" />
<rect x="38" y="13" width="4" height="2" />
<rect x="37" y="21" width="8" height="4" />
<rect x="84" y="0" width="12" height="6" />
<rect x="31" y="88" width="8" height="4" />
<rect x="91" y="18" width="2" height="2" />
<rect x="79" y="49" width="8" height="4" />
<rect x="46" y="74" width="3" height="2" />
<rect x="43" y="76" width="8" height="7" />
<rect x="63" y="93" width="1" height="1" />
<rect x="79" y="29" width="2" height="1" />
<rect x="6" y="58" width="5" height="3" />
<rect x="57" y="35" width="1" height="1" />
<rect x="26" y="16" width="11" height="6" />
<rect x="14" y="46" width="2" height="2" />
<rect x="15" y="51" width="2" height="2" />
<rect x="16" y="56" width="1" height="4" />
<rect x="13" y="72" width="6" height="11" />
<rect x="34" y="0" width="3" height="2" />
<rect x="46" y="22" width="3" height="3" />
<rect x="10" y="91" width="5" height="5" />
<rect x="12" y="63" width="6" height="8" />
<rect x="42" y="36" width="20" height="3" />
<rect x="62" y="65" width="1" height="1" />
<rect x="2" y="89" width="1" height="1" />
<rect x="72" y="95" width="5" height="3" />
<rect x="93" y="6" width="7" height="7" />
<rect x="62" y="33" width="8" height="4" />
<rect x="47" y="94" width="13" height="6" />
<rect x="64" y="12" width="11" height="5" />
<rect x="36" y="54" width="4" height="3" />
<rect x="65" y="1" width="11" height="3" />
<rect x="51" y="80" width="11" height="7" />
<rect x="62" y="24" width="1" height="1" />
<rect x="4" y="35" width="4" height="3" />
<rect x="37" y="30" width="1" height="1" />
<rect x="82" y="27" width="5" height="4" />
<rect x="29" y="93" width="2" height="2" />
<rect x="63" y="68" width="8" height="1" />
<rect x="61" y="98" width="2" height="2" />
<rect x="3" y="20" width="8" height="4" />
<rect x="64" y="88" width="7" height="12" />
<rect x="96" y="38" width="4" height="1" />
<rect x="35" y="76" width="8" height="5" />
<rect x="13" y="19" width="9" height="5" />
<rect x="35" y="43" width="6" height="11" />
<rect x="7" y="15" width="2" height="2" />
<rect x="38" y="30" width="13" height="4" />
<rect x="54" y="39" width="8" height="5" />
<rect x="10" y="6" width="11" height="4" />
<rect x="32" y="92" width="7" height="8" />
<rect x="29" y="99" width="1" height="1" />
<rect x="35" y="2" width="4" height="3" />
<rect x="88" y="49" width="8" height="4" />
<rect x="11" y="87" width="6" height="4" />
<rect x="5" y="85" width="4" height="2" />
<rect x="79" y="95" width="14" height="5" />
<rect x="13" y="84" width="3" height="2" />
<rect x="37" y="1" width="1" height="1" />
<rect x="57" y="8" width="3" height="3" />
<rect x="52" y="11" width="6" height="3" />
<rect x="0" y="95" width="1" height="1" />
<rect x="31" y="39" width="2" height="2" />
<rect x="20" y="99" width="1" height="1" />
<rect x="21" y="94" width="6" height="6" />
<rect x="39" y="97" width="8" height="3" />
<rect x="67" y="54" width="6" height="14" />
<rect x="1" y="14" width="1" height="1" />
<rect x="63" y="22" width="4" height="4" />
<rect x="36" y="61" width="3" height="4" />
<rect x="36" y="58" width="4" height="2" />
<rect x="76" y="27" width="1" height="1" />
<rect x="69" y="81" width="1" height="1" />
<rect x="12" y="80" width="1" height="1" />
<rect x="35" y="84" width="1" height="1" />
<rect x="34" y="85" width="7" height="3" />
<rect x="1" y="84" width="1" height="1" />
<rect x="0" y="47" width="5" height="8" />
<rect x="45" y="71" width="6" height="3" />
<rect x="23" y="19" width="1" height="1" />
<rect x="36" y="26" width="5" height="2" />
<rect x="52" y="15" width="2" height="2" />
<rect x="48" y="87" width="8" height="4" />
<rect x="42" y="41" width="12" height="3" />
<rect x="71" y="34" width="5" height="2" />
<rect x="58" y="91" width="5" height="3" />
<rect x="19" y="29" width="2" height="2" />
<rect x="28" y="95" width="1" height="1" />
<rect x="23" y="41" width="1" height="1" />
<rect x="0" y="17" width="1" height="1" />
<rect x="10" y="55" width="5" height="2" />
<rect x="0" y="56" width="3" height="3" />
<rect x="15" y="0" width="6" height="2" />
<rect x="12" y="1" width="1" height="1" />
<rect x="13" y="0" width="1" height="1" />
<rect x="93" y="17" width="7" height="7" />
<rect x="88" y="18" width="1" height="1" />
<rect x="88" y="19" width="1" height="1" />
<rect x="36" y="28" width="3" height="2" />
<rect x="2" y="4" width="1" height="1" />
<rect x="99" y="4" width="1" height="1" />
<rect x="68" y="44" width="1" height="2" />
<rect x="61" y="9" width="2" height="4" />
<rect x="87" y="16" width="2" height="2" />
<rect x="90" y="6" width="3" height="3" />
<rect x="70" y="43" width="3" height="1" />
<rect x="17" y="44" width="2" height="4" />
<rect x="16" y="92" width="1" height="1" />
<rect x="95" y="96" width="5" height="3" />
<rect x="0" y="8" width="1" height="1" />
<rect x="98" y="63" width="1" height="1" />
<rect x="2" y="61" width="10" height="4" />
<rect x="72" y="99" width="1" height="1" />
<rect x="26" y="41" width="4" height="2" />
<rect x="1" y="87" width="1" height="3" />
<rect x="9" y="84" width="2" height="1" />
<rect x="60" y="26" width="1" height="9" />
<rect x="50" y="17" width="4" height="4" />
<rect x="0" y="9" width="1" height="1" />
<rect x="62" y="41" width="3" height="3" />
<rect x="56" y="65" width="6" height="5" />
<rect x="30" y="3" width="1" height="1" />
<rect x="30" y="9" width="1" height="1" />
<rect x="0" y="15" width="1" height="1" />
<rect x="6" y="7" width="4" height="3" />
<rect x="16" y="94" width="1" height="1" />
<rect x="39" y="0" width="1" height="1" />
<rect x="27" y="99" width="1" height="1" />
<rect x="7" y="44" width="2" height="2" />
<rect x="69" y="84" width="3" height="3" />
<rect x="19" y="26" width="2" height="2" />
<rect x="34" y="9" width="1" height="2" />
<rect x="70" y="79" width="2" height="2" />
<rect x="78" y="98" width="1" height="2" />
<rect x="75" y="98" width="2" height="2" />
<rect x="89" y="53" width="3" height="3" />
<rect x="0" y="74" width="2" height="10" />
<rect x="0" y="62" width="1" height="1" />
<rect x="95" y="45" width="1" height="2" />
<rect x="1" y="34" width="2" height="3" />

</svg>
